<svg width="800" height="800" viewBox="0 0 800 800" fill="none" xmlns="http://www.w3.org/2000/svg">
<rect width="800" height="800" rx="150" fill="white"/>
<path fill-rule="evenodd" clip-rule="evenodd" d="M522.517 183.03C567.522 173.095 607.985 175.226 632.77 178.453C633.561 178.556 634.402 178.908 635.311 180.063C636.316 181.335 637.273 183.533 637.273 186.462V533.65C637.273 541.219 630.782 547.088 624.033 546.864C591.906 545.806 544.699 546.769 500.161 557.538C469.558 564.938 445.084 577.295 426.364 589.997V240.807C426.364 234.47 427.808 231.257 428.855 229.904C432.119 225.692 442.111 216.697 459.313 206.985C475.922 197.609 497.545 188.542 522.517 183.03ZM639.574 126.133C610.846 122.391 563.9 119.864 511.16 131.507C480.707 138.229 454.206 149.288 433.405 161.033C413.195 172.442 396.491 185.565 387.187 197.574C376.478 211.394 373.636 227.617 373.636 240.807V650.618C373.636 662.254 381.255 672.514 392.386 675.875C403.464 679.217 415.42 674.941 421.874 665.346L421.921 665.272L421.892 665.317L421.874 665.346C421.874 665.346 421.908 665.296 421.94 665.248C422.053 665.088 422.29 664.758 422.649 664.278C423.369 663.317 424.581 661.761 426.295 659.764C429.73 655.762 435.14 650.035 442.612 643.753C457.536 631.204 480.538 616.563 512.546 608.825C550.399 599.671 592.188 598.605 622.296 599.597C658.672 600.797 690 571.198 690 533.65V186.462C690 158.596 671.403 130.278 639.574 126.133Z" fill="black"/>
<path fill-rule="evenodd" clip-rule="evenodd" d="M277.482 183.03C232.478 173.095 192.014 175.226 167.229 178.453C166.44 178.556 165.597 178.908 164.688 180.063C163.686 181.335 162.727 183.533 162.727 186.462V533.65C162.727 541.219 169.218 547.088 175.967 546.864C208.093 545.806 255.301 546.769 299.838 557.538C330.442 564.938 354.916 577.295 373.636 589.997V240.807C373.636 234.47 372.192 231.257 371.145 229.904C367.881 225.692 357.889 216.697 340.686 206.985C324.078 197.609 302.453 188.542 277.482 183.03ZM160.424 126.133C189.154 122.391 236.1 119.864 288.841 131.507C319.293 138.229 345.793 149.288 366.595 161.033C386.805 172.442 403.509 185.565 412.813 197.574C423.522 211.394 426.364 227.617 426.364 240.807L426.364 650.618C426.364 662.254 418.745 672.514 407.614 675.875C396.536 679.217 384.58 674.941 378.126 665.346L378.079 665.272L378.108 665.317L378.126 665.346C378.126 665.346 378.092 665.296 378.06 665.248C377.947 665.088 377.71 664.758 377.351 664.278C376.631 663.317 375.419 661.761 373.705 659.764C370.27 655.762 364.86 650.035 357.388 643.753C342.464 631.204 319.462 616.563 287.455 608.825C249.601 599.671 207.812 598.605 177.704 599.597C141.329 600.797 110 571.198 110 533.65V186.462C110 158.596 128.598 130.278 160.424 126.133Z" fill="black"/>
</svg>
