<svg viewBox="-2 -2 64 64" fill="none" xmlns="http://www.w3.org/2000/svg" id="Github--Streamline-Iconoir" height="64" width="64"><desc>Github Streamline Icon: https://streamlinehq.com</desc><path d="M41.60875 57.3515v-7.8395c0.10250000000000001 -1.3022500000000001 -0.0735 -2.61175 -0.51625 -3.841 -0.44275000000000003 -1.22925 -1.142 -2.35025 -2.05125 -3.288 8.57675 -0.95625 17.59075 -4.2065 17.59075 -19.1205 -0.001 -3.8135000000000003 -1.4677499999999999 -7.481 -4.09725 -10.243 1.245 -3.3365 1.157 -7.0245 -0.246 -10.29775 0 0 -3.223 -0.9560000000000001 -10.68 4.04275 -6.2605 -1.69675 -12.859750000000002 -1.69675 -19.120250000000002 0C15.0315 1.7657500000000002 11.808250000000001 2.72175 11.808250000000001 2.72175c-1.403 3.27325 -1.491 6.96125 -0.24575 10.29775 -2.6492500000000003 2.7824999999999998 -4.11775 6.483 -4.09725 10.325 0 14.8045 9.014 18.055 17.59075 19.120250000000002 -0.8987499999999999 0.92875 -1.5917500000000002 2.03625 -2.034 3.2502500000000003 -0.4425 1.21425 -0.62425 2.508 -0.5335 3.7969999999999997v7.8395" stroke="#000000" stroke-linecap="round" stroke-linejoin="round" stroke-width="4"></path><path d="M22.488500000000002 51.88825c-8.1945 2.65825 -15.023249999999999 0 -19.1205 -8.1945" stroke="#000000" stroke-linecap="round" stroke-linejoin="round" stroke-width="4"></path></svg>